<?xml version="1.0" standalone="no"?>
<!DOCTYPE svg PUBLIC "-//W3C//DTD SVG 20010904//EN"
 "http://www.w3.org/TR/2001/REC-SVG-20010904/DTD/svg10.dtd">
<svg version="1.0" xmlns="http://www.w3.org/2000/svg"
 width="712.000000pt" height="677.000000pt" viewBox="0 0 712.000000 677.000000"
 preserveAspectRatio="xMidYMid meet">

<g transform="translate(0.000000,677.000000) scale(0.100000,-0.100000)"
fill="#000000" stroke="none">
<path d="M3828 6653 c-14 -2 -32 -11 -38 -19 -7 -8 -18 -14 -25 -14 -7 0 -18
-6 -24 -14 -7 -8 -31 -24 -53 -36 -35 -18 -52 -20 -117 -15 -45 3 -95 0 -124
-7 -40 -10 -55 -9 -95 4 -26 9 -56 16 -67 16 -54 -3 -85 3 -85 16 0 8 -8 16
-17 18 -31 6 -158 -11 -161 -22 -2 -5 -12 -10 -23 -10 -12 0 -16 5 -13 15 10
25 -31 18 -99 -16 -34 -17 -66 -38 -70 -45 -16 -28 -60 -62 -73 -57 -8 3 -14
1 -14 -4 0 -6 -18 -15 -40 -22 -22 -6 -65 -34 -95 -60 -31 -27 -71 -60 -90
-72 -19 -13 -40 -38 -46 -56 -14 -43 -61 -101 -78 -95 -8 3 -11 0 -8 -6 9 -14
-20 -35 -38 -28 -10 3 -25 -4 -39 -19 -13 -14 -33 -25 -46 -25 -14 0 -20 -5
-17 -12 3 -9 -6 -13 -26 -14 -16 -1 -34 -9 -39 -18 -5 -9 -13 -14 -19 -11 -5
3 -6 -1 -2 -11 5 -13 2 -15 -13 -10 -26 8 -54 -44 -54 -99 1 -123 -8 -223 -25
-260 -36 -80 -44 -107 -64 -215 -48 -261 -55 -581 -21 -906 32 -305 32 -307
50 -327 25 -26 50 -123 51 -198 l1 -64 13 60 c7 33 20 87 28 120 9 33 19 94
22 135 4 41 8 91 10 110 2 19 5 65 6 102 1 37 5 66 9 63 9 -6 20 44 20 90 0
18 9 44 20 58 16 20 20 40 20 104 -1 43 4 103 9 133 5 30 10 66 10 80 l0 25
-11 -22 c-19 -39 -29 -25 -12 16 17 43 15 88 -5 100 -9 6 -12 24 -8 62 3 30 8
79 10 110 2 30 7 61 11 67 11 18 66 44 66 32 0 -13 20 -13 40 0 13 9 13 11 0
21 -12 8 -11 9 6 5 13 -4 29 1 44 14 14 12 31 18 42 14 12 -3 18 0 18 10 0 9
5 16 11 16 6 0 31 14 55 32 24 17 54 33 67 34 58 7 111 23 119 38 5 9 17 16
27 16 31 0 78 24 74 38 -3 7 8 15 26 18 17 4 31 13 31 20 0 8 10 14 22 14 12
0 29 7 38 15 9 8 38 17 64 20 26 2 51 7 55 9 4 3 20 -1 35 -9 21 -11 31 -12
46 -3 14 9 25 9 45 0 15 -7 31 -10 36 -7 5 4 9 -1 9 -10 0 -11 6 -14 25 -9 31
8 78 -3 70 -16 -4 -6 8 -10 26 -10 19 0 40 -9 54 -22 13 -13 30 -29 38 -35 9
-7 21 -21 27 -30 8 -13 13 -14 16 -5 9 21 24 13 24 -12 0 -13 7 -27 16 -30 8
-3 13 -10 9 -15 -3 -5 -1 -12 5 -16 5 -3 10 -2 10 4 0 21 27 -1 46 -36 10 -20
24 -36 29 -36 6 0 16 -8 24 -19 7 -11 19 -17 26 -14 7 2 35 -7 61 -21 97 -52
216 -41 267 23 10 13 25 24 32 24 8 0 22 11 31 25 13 20 23 24 48 21 40 -6 67
-16 84 -33 22 -22 37 -15 16 8 -19 21 -19 21 17 14 26 -5 39 -2 48 9 18 21 63
22 55 1 -6 -14 6 -20 29 -16 7 1 37 -59 37 -75 0 -3 -7 -3 -16 0 -13 5 -14 2
-8 -11 4 -10 8 -28 8 -40 1 -13 11 -28 26 -35 14 -7 28 -17 32 -23 5 -6 8 -2
8 8 0 9 6 17 14 17 8 0 24 12 35 26 l20 25 22 -33 c26 -41 118 -106 127 -91 4
5 24 9 44 9 32 -2 37 1 32 16 -4 13 0 18 15 18 15 0 21 6 21 23 0 18 5 23 27
22 36 0 60 -46 68 -132 6 -58 4 -72 -10 -87 -11 -10 -15 -26 -12 -41 2 -14 0
-25 -5 -25 -6 0 -7 -27 -2 -67 4 -38 7 -106 8 -153 1 -71 5 -94 29 -141 15
-31 27 -63 27 -70 0 -8 5 -20 10 -25 16 -16 50 -163 50 -216 0 -27 5 -48 10
-48 6 0 10 -29 10 -66 0 -77 33 -292 58 -382 l18 -64 0 154 c-1 133 2 157 18
181 17 24 46 41 31 17 -3 -5 1 -10 9 -10 8 0 20 9 26 20 6 11 26 30 46 44 23
16 31 26 24 31 -7 4 -32 -6 -56 -24 -44 -31 -64 -38 -64 -23 0 7 21 147 41
267 6 39 18 99 27 135 28 114 17 810 -15 878 -8 20 -12 44 -8 59 3 14 2 30 -3
36 -5 7 -15 29 -21 50 -7 20 -17 37 -22 37 -5 0 -9 15 -9 34 0 18 -7 39 -16
47 -14 12 -14 14 3 26 14 11 15 15 4 22 -10 6 -10 13 -3 28 9 16 6 21 -17 31
-23 10 -27 17 -23 37 4 22 -31 84 -59 105 -18 14 -85 68 -108 87 -14 13 -29
23 -32 23 -4 0 -9 13 -12 28 -6 31 -78 110 -135 146 -20 13 -50 36 -66 50 -16
14 -37 28 -47 31 -11 4 -19 10 -19 15 0 5 -15 13 -33 19 -35 12 -64 44 -87 97
-18 40 -84 74 -145 74 -33 0 -45 4 -45 15 0 8 -14 17 -37 21 -21 4 -50 15 -66
26 -20 14 -36 18 -58 13 -21 -5 -29 -4 -25 3 11 18 -24 29 -67 21 -47 -8 -61
-4 -53 17 5 14 -23 17 -86 7z m342 -101 c0 -5 -7 -9 -15 -9 -8 0 -15 4 -15 9
0 4 7 8 15 8 8 0 15 -4 15 -8z m-1960 -521 c0 -5 -7 -12 -16 -15 -14 -5 -15
-4 -4 9 14 17 20 19 20 6z m1730 -555 c-6 -9 -19 -12 -28 -8 -17 6 -14 7 37
21 2 1 -2 -5 -9 -13z m-145 -16 c3 -5 2 -10 -4 -10 -5 0 -13 5 -16 10 -3 6 -2
10 4 10 5 0 13 -4 16 -10z m45 -10 c0 -9 -31 -23 -37 -17 -2 2 -1 11 3 20 5
15 34 13 34 -3z m50 -30 c0 -5 -7 -7 -15 -4 -8 4 -12 10 -9 15 6 11 24 2 24
-11z m-105 -8 c-3 -3 -11 0 -18 7 -9 10 -8 11 6 5 10 -3 15 -9 12 -12z m614
-26 c-1 -16 -2 -17 -6 -3 -2 9 -9 17 -14 17 -5 0 -9 4 -9 10 0 5 7 7 15 4 8
-4 14 -16 14 -28z m-469 -21 c-16 -19 -68 -28 -105 -16 l-30 9 25 10 c14 6 47
11 74 11 42 1 47 -1 36 -14z m-1720 -290 c0 -8 -4 -15 -10 -15 -5 0 -10 7 -10
15 0 8 5 15 10 15 6 0 10 -7 10 -15z"/>
<path d="M3120 5690 c0 -5 5 -10 10 -10 6 0 10 5 10 10 0 6 -4 10 -10 10 -5 0
-10 -4 -10 -10z"/>
<path d="M4323 4586 c4 -11 0 -12 -23 -3 -32 12 -50 3 -32 -15 24 -24 11 -30
-47 -23 -33 4 -67 2 -77 -3 -42 -21 -96 -42 -109 -42 -8 0 -15 -5 -15 -10 0
-6 -6 -10 -12 -9 -19 4 -78 -11 -116 -29 -29 -14 -32 -19 -26 -49 5 -26 3 -33
-10 -33 -9 0 -16 -4 -16 -10 0 -5 7 -10 15 -10 8 0 15 -7 15 -15 0 -11 11 -15
38 -15 35 1 135 30 149 44 3 3 25 6 47 6 23 0 57 4 76 10 31 8 150 21 190 20
8 -1 30 -1 48 0 40 0 34 -19 -6 -21 -36 -2 59 -27 106 -28 19 -1 31 -5 27 -11
-4 -6 13 -10 42 -11 l48 -1 -47 -8 c-25 -5 -55 -13 -65 -19 -16 -9 -16 -10 5
-11 13 0 49 7 79 16 40 12 58 13 66 5 8 -8 2 -11 -23 -12 l-35 -2 35 -7 35 -7
-42 -2 c-44 -1 -65 -15 -34 -24 10 -2 39 -1 64 3 26 4 47 3 47 -2 0 -4 -6 -8
-14 -8 -7 0 -16 -9 -19 -19 -3 -14 1 -20 17 -23 37 -7 58 2 50 20 -4 10 -8 30
-9 46 -2 15 -8 33 -14 39 -6 6 -11 25 -12 42 0 33 -25 99 -49 130 -8 11 -42
40 -75 64 -49 37 -68 45 -110 48 -37 2 -53 -1 -62 -13 -11 -15 -16 -15 -58 0
-38 12 -46 13 -42 2z m317 -216 c0 -5 -15 -10 -32 -10 -25 0 -29 3 -18 10 20
13 50 13 50 0z m-7 -27 c-7 -2 -19 -2 -25 0 -7 3 -2 5 12 5 14 0 19 -2 13 -5z"/>
<path d="M2475 4570 c-23 -9 -53 -40 -39 -40 5 0 -7 -11 -27 -24 -39 -26 -99
-133 -82 -145 5 -3 12 -13 15 -21 4 -12 16 -15 49 -11 l44 4 -38 12 c-21 6
-35 14 -31 18 11 11 33 8 70 -9 19 -9 44 -14 57 -11 101 25 101 26 30 33 -24
2 -43 -1 -43 -6 0 -6 -5 -10 -11 -10 -8 0 -8 4 0 14 10 12 8 15 -11 19 -13 2
-3 2 22 0 25 -2 78 3 119 11 64 13 78 14 107 1 38 -16 149 -23 179 -11 12 4
10 1 -5 -8 -14 -8 -23 -16 -20 -16 39 -8 79 -7 75 0 -4 6 1 10 9 10 9 0 16 -4
16 -9 0 -16 89 -51 130 -51 43 0 45 2 30 29 -8 15 -6 17 15 13 38 -7 30 26
-10 43 -18 7 -19 8 -2 12 10 3 25 -1 33 -8 8 -6 17 -9 21 -6 6 7 -28 23 -69
31 -15 4 -35 15 -45 25 -10 10 -47 28 -83 40 -36 12 -75 27 -87 33 -26 13 -53
4 -53 -17 0 -8 -4 -15 -10 -15 -5 0 -10 6 -10 14 0 10 -12 14 -42 14 -24 -1
-65 7 -91 16 -43 14 -51 14 -75 1 -15 -8 -20 -14 -12 -15 9 0 11 -3 4 -10 -7
-7 -19 -7 -35 -1 -13 5 -19 10 -13 10 9 1 29 41 20 41 -17 0 -87 -45 -100 -65
-9 -14 -24 -25 -34 -25 -13 1 -11 6 11 25 15 13 27 28 27 34 0 5 9 13 20 16
22 7 28 25 8 24 -7 0 -22 -4 -33 -9z m-29 -149 c-10 -16 -46 -20 -46 -5 0 8
10 14 26 14 14 0 23 -4 20 -9z m599 -21 c8 -13 -15 -13 -35 0 -12 8 -11 10 7
10 12 0 25 -4 28 -10z m42 -16 c-3 -3 -12 -4 -19 -1 -8 3 -5 6 6 6 11 1 17 -2
13 -5z"/>
<path d="M2733 4543 c9 -2 25 -2 35 0 9 3 1 5 -18 5 -19 0 -27 -2 -17 -5z"/>
<path d="M3080 4456 c0 -9 40 -13 46 -5 3 5 -6 9 -20 9 -14 0 -26 -2 -26 -4z"/>
<path d="M2480 4321 c0 -5 9 -7 20 -4 11 3 20 7 20 9 0 2 -9 4 -20 4 -11 0
-20 -4 -20 -9z"/>
<path d="M2327 4283 c-3 -5 17 -9 44 -10 30 -1 47 2 44 7 -7 12 -82 13 -88 3z"/>
<path d="M4032 4200 c-28 -15 -75 -50 -103 -79 -43 -44 -55 -52 -76 -46 -19 4
-31 0 -45 -14 -15 -17 -16 -21 -3 -21 11 0 15 -10 15 -35 0 -19 -4 -35 -10
-35 -19 0 -10 -25 19 -53 28 -26 62 -34 95 -21 9 3 16 11 16 16 0 6 -7 8 -14
5 -10 -4 -13 -1 -10 8 7 18 36 24 84 18 46 -6 57 13 13 23 -46 10 -53 13 -53
24 0 20 108 110 133 110 4 0 7 -16 7 -36 0 -138 180 -183 240 -60 11 23 20 52
20 64 0 21 1 21 30 4 16 -9 30 -22 30 -28 0 -6 9 -19 20 -29 14 -12 17 -22 10
-30 -5 -6 -7 -14 -4 -18 11 -11 -16 -46 -31 -41 -9 4 -15 0 -15 -9 0 -20 20
-27 43 -15 10 5 17 5 17 -1 0 -5 11 -8 25 -7 14 0 25 6 25 12 0 6 15 9 35 8
39 -3 44 2 18 22 -16 12 -15 13 12 14 37 0 62 14 46 25 -7 4 -11 14 -10 23 5
30 -12 80 -32 98 -10 9 -19 13 -19 9 0 -5 -12 3 -27 16 -45 41 -79 58 -144 75
-56 14 -62 14 -80 -2 -12 -10 -38 -18 -71 -19 -29 -1 -66 -6 -81 -10 -34 -9
-142 -63 -182 -91 -45 -31 -55 -36 -55 -26 0 13 120 131 141 137 10 4 19 11
19 16 0 5 18 9 40 9 22 0 40 4 40 9 0 19 -76 7 -128 -19z m388 -44 c0 -3 -4
-8 -10 -11 -5 -3 -10 -1 -10 4 0 6 5 11 10 11 6 0 10 -2 10 -4z m-240 -101 c0
-8 -7 -15 -15 -15 -8 0 -15 7 -15 15 0 8 7 15 15 15 8 0 15 -7 15 -15z m95 5
c3 -5 -1 -10 -10 -10 -9 0 -13 5 -10 10 3 6 8 10 10 10 2 0 7 -4 10 -10z"/>
<path d="M2847 4203 c17 -2 37 -11 43 -19 14 -16 17 -16 -87 -18 -65 -1 -73 1
-76 19 -3 15 -5 13 -6 -7 -1 -23 -5 -27 -31 -26 -17 1 -30 7 -30 14 0 7 -7 11
-15 10 -21 -3 -31 -16 -12 -16 10 0 17 -6 17 -14 0 -17 -34 -31 -50 -21 -6 4
-10 3 -9 -2 4 -20 -2 -24 -18 -12 -15 12 -16 12 -11 -8 3 -12 3 -21 -1 -20
-12 3 -87 -31 -99 -46 -10 -12 -10 -18 3 -31 15 -14 19 -14 53 0 20 9 44 18
52 21 8 4 22 12 30 19 16 13 88 54 95 54 3 0 5 -17 5 -37 0 -41 28 -96 57
-111 18 -10 58 -15 102 -13 34 1 91 65 91 101 0 33 14 46 32 30 49 -41 63 -50
79 -50 10 0 21 -4 24 -10 7 -12 65 -14 65 -2 0 4 -9 15 -19 24 -12 10 -17 24
-14 36 3 14 -10 31 -48 65 -56 49 -100 65 -197 71 -31 2 -43 2 -25 -1z m117
-59 c7 -19 2 -18 -19 6 -16 17 -16 20 -3 15 9 -4 19 -13 22 -21z m46 -4 c0 -5
-2 -10 -4 -10 -3 0 -8 5 -11 10 -3 6 -1 10 4 10 6 0 11 -4 11 -10z m-210 -85
c0 -8 -7 -15 -15 -15 -8 0 -15 7 -15 15 0 8 7 15 15 15 8 0 15 -7 15 -15z m97
-1 c-3 -3 -12 -4 -19 -1 -8 3 -5 6 6 6 11 1 17 -2 13 -5z"/>
<path d="M4151 4184 c0 -11 3 -14 6 -6 3 7 2 16 -1 19 -3 4 -6 -2 -5 -13z"/>
<path d="M1780 4137 c0 -18 6 -42 14 -52 13 -17 14 -16 21 23 7 45 2 62 -21
62 -9 0 -14 -11 -14 -33z"/>
<path d="M2560 4153 c0 -5 -18 -19 -40 -33 -39 -23 -51 -40 -29 -40 6 0 23 9
37 20 86 66 80 59 55 60 -13 0 -23 -3 -23 -7z"/>
<path d="M5247 4075 c-32 -31 -32 -27 -8 -123 10 -43 22 -89 25 -104 8 -35 28
-28 49 18 17 36 22 126 11 197 -8 46 -35 50 -77 12z"/>
<path d="M2512 3988 c-9 -9 -4 -14 21 -23 17 -7 40 -16 50 -20 10 -4 17 -3 17
4 0 6 -11 16 -25 21 -14 5 -25 14 -25 20 0 14 -23 13 -38 -2z"/>
<path d="M3043 3973 c-57 -7 -35 -21 38 -25 70 -3 101 4 86 19 -9 8 -76 12
-124 6z"/>
<path d="M2880 3889 c0 -5 5 -7 10 -4 6 3 10 8 10 11 0 2 -4 4 -10 4 -5 0 -10
-5 -10 -11z"/>
<path d="M4255 3890 c3 -5 8 -10 11 -10 2 0 4 5 4 10 0 6 -5 10 -11 10 -5 0
-7 -4 -4 -10z"/>
<path d="M4315 3890 c-3 -6 1 -7 9 -4 18 7 21 14 7 14 -6 0 -13 -4 -16 -10z"/>
<path d="M5016 3478 c-9 -12 -16 -33 -16 -46 l0 -23 31 21 c20 15 29 29 27 43
-4 29 -24 32 -42 5z"/>
<path d="M4968 3350 c-4 -8 -14 -45 -24 -82 -11 -38 -22 -68 -26 -68 -5 0 -8
-10 -8 -21 0 -28 -32 -119 -42 -119 -5 0 -8 -11 -8 -25 0 -16 6 -25 15 -25 9
0 15 9 15 24 0 14 11 45 24 70 13 25 29 69 36 98 6 29 16 69 22 89 10 37 7 89
-4 59z"/>
<path d="M4840 2981 c-9 -9 -22 -32 -30 -51 -7 -19 -19 -42 -27 -51 -7 -8 -13
-21 -13 -28 0 -9 -8 -11 -23 -7 -20 5 -27 -1 -45 -35 -12 -23 -22 -48 -22 -57
0 -14 -2 -13 -13 2 -11 16 -13 15 -15 -9 -2 -32 -32 -74 -52 -75 -15 0 -40
-42 -40 -67 0 -7 -4 -13 -10 -13 -5 0 -10 -11 -10 -24 0 -14 -4 -28 -10 -31
-5 -3 -10 -11 -10 -16 0 -6 5 -7 10 -4 6 3 10 3 10 -2 0 -14 -14 -29 -32 -36
-14 -5 -18 -18 -18 -59 0 -38 -3 -49 -10 -38 -5 8 -10 10 -10 4 0 -5 5 -15 11
-21 12 -12 -16 -53 -37 -53 -7 0 -15 -16 -19 -36 -8 -45 1 -57 10 -14 7 30 8
31 26 14 18 -16 19 -16 19 2 0 14 8 20 28 21 27 2 27 2 4 -9 -18 -9 -22 -17
-17 -36 4 -15 2 -21 -4 -17 -7 3 -8 0 -5 -9 4 -11 0 -16 -10 -16 -9 0 -16 -7
-16 -15 0 -19 -42 -43 -48 -26 -2 6 -7 9 -12 6 -5 -3 -11 3 -15 14 -3 10 -15
21 -25 24 -11 3 -24 16 -29 29 -8 18 -10 19 -10 5 -1 -10 -13 -24 -28 -30 -66
-30 -93 -52 -87 -70 8 -27 -22 -83 -74 -137 -27 -28 -46 -56 -44 -65 2 -10 0
-15 -6 -11 -6 4 -17 0 -24 -7 -7 -8 -21 -12 -31 -9 -12 3 -20 -2 -24 -17 -3
-11 -9 -21 -14 -21 -5 0 -9 -7 -9 -15 0 -17 -25 -20 -35 -5 -17 27 -105 -23
-106 -60 l0 -25 -10 23 c-5 13 -7 28 -4 32 3 5 1 11 -4 14 -5 3 -12 -1 -15
-10 -3 -8 -11 -12 -17 -8 -9 5 -10 -4 -5 -32 l7 -39 -16 29 c-18 34 -19 53 -2
59 6 2 8 8 4 13 -13 14 -28 -19 -22 -49 7 -41 -4 -77 -21 -70 -10 4 -14 24
-15 72 -1 75 -5 67 -15 -34 -5 -50 -9 -64 -15 -50 -7 18 -8 17 -8 -7 -1 -15 4
-30 9 -33 6 -3 10 -14 10 -23 -1 -23 -29 26 -31 53 -1 13 -5 6 -13 -17 -14
-45 -26 -59 -26 -30 0 13 -6 22 -15 22 -9 0 -15 -9 -15 -21 0 -16 -5 -20 -19
-16 -13 3 -17 0 -14 -12 2 -9 -5 -22 -17 -29 -17 -10 -20 -10 -20 5 -1 17 -2
17 -15 0 -9 -13 -20 -17 -34 -12 -16 5 -19 12 -14 41 4 25 2 39 -8 45 -20 12
-29 11 -29 -3 0 -7 -9 -24 -20 -38 l-20 -25 0 23 c0 13 -6 22 -15 22 -8 0 -19
15 -24 33 -5 17 -10 24 -10 14 -1 -11 -8 -32 -18 -47 -12 -21 -19 -25 -27 -17
-19 20 -37 90 -26 101 6 6 10 16 10 24 0 9 -8 5 -20 -11 -12 -15 -18 -33 -14
-44 5 -15 4 -15 -5 -3 -6 8 -11 23 -11 33 0 9 -3 17 -6 17 -4 0 -13 -8 -21
-17 -12 -16 -13 -15 -8 15 5 24 3 32 -6 30 -7 -2 -15 6 -17 16 -7 32 -35 55
-65 52 -15 -2 -27 1 -27 6 0 5 -8 18 -19 29 -12 13 -16 29 -13 46 3 16 1 24
-5 20 -14 -9 -24 28 -11 41 15 15 -10 26 -28 11 -13 -10 -15 -7 -13 22 3 40
-7 62 -26 55 -9 -3 -15 7 -19 30 -5 25 -12 34 -26 34 -21 0 -27 24 -10 35 19
12 1 21 -39 20 -34 -1 -41 2 -41 18 0 10 5 15 10 12 9 -6 11 -1 14 38 1 6 -5
11 -11 9 -8 -1 -13 10 -14 30 0 32 -1 31 -25 -22 -14 -30 -28 -57 -32 -60 -4
-3 -15 -19 -24 -36 -16 -28 -16 -32 -1 -47 15 -15 15 -17 0 -23 -9 -3 -14 -10
-11 -15 3 -5 -5 -9 -18 -8 -13 0 -17 3 -10 6 20 8 13 25 -8 18 -11 -3 -20 -2
-20 4 0 5 -8 12 -18 15 -10 3 -25 18 -34 33 -9 16 -34 46 -55 69 -21 22 -44
52 -51 66 -8 14 -25 37 -38 51 -13 14 -24 31 -24 38 0 7 -11 10 -30 7 -36 -5
-43 18 -7 25 20 3 21 4 3 12 -14 6 -23 3 -32 -10 -20 -27 -17 -9 3 21 13 21
14 27 3 34 -7 4 -9 13 -6 19 4 6 0 11 -9 11 -9 0 -13 -5 -10 -10 4 -6 2 -16
-3 -23 -19 -24 -11 -66 17 -83 41 -27 80 -67 74 -76 -6 -11 35 -48 54 -48 7 0
13 -11 13 -24 0 -13 7 -26 15 -30 9 -3 15 -18 15 -36 0 -19 5 -30 14 -30 14 0
86 -107 86 -126 0 -5 12 -22 28 -39 28 -31 57 -105 40 -105 -5 0 -6 -5 -3 -11
4 -6 14 -8 22 -5 12 5 14 1 9 -19 -6 -22 -1 -28 29 -42 19 -9 37 -24 40 -34 3
-9 17 -20 30 -23 14 -4 23 -13 23 -24 0 -9 4 -30 11 -45 9 -23 15 -27 32 -22
19 7 21 4 15 -20 -6 -23 -4 -26 14 -20 25 8 52 -17 44 -39 -7 -19 16 -22 35
-3 11 10 13 9 7 -6 -4 -13 -1 -20 13 -24 10 -2 24 -16 32 -29 7 -14 18 -23 25
-20 7 3 14 -4 16 -16 3 -21 4 -21 21 -4 11 11 24 15 35 11 16 -6 16 -8 -2 -21
-11 -8 -15 -14 -9 -14 7 0 18 7 27 15 14 14 16 12 24 -17 5 -18 14 -32 21 -30
6 1 11 -8 11 -19 0 -18 2 -19 15 -9 8 7 12 17 8 23 -3 6 -1 7 5 3 7 -4 12 -3
12 3 0 6 7 8 15 5 8 -4 15 -12 15 -19 0 -7 9 -15 20 -18 11 -3 20 -1 20 5 0 6
7 8 15 4 10 -3 15 1 15 12 1 15 2 15 15 -2 15 -19 15 -19 15 1 0 11 7 23 15
27 12 4 13 2 5 -13 -8 -16 -7 -18 10 -14 12 3 20 0 20 -7 0 -7 9 -2 20 11 10
13 19 19 20 14 0 -6 -5 -16 -11 -22 -7 -7 -6 -12 5 -16 9 -4 15 -3 15 1 -3 19
2 25 11 12 8 -13 10 -12 10 3 0 10 5 15 10 12 6 -3 10 -15 10 -26 0 -10 5 -19
10 -19 6 0 10 6 10 14 0 7 7 19 15 26 13 10 19 8 36 -14 12 -15 25 -23 32 -19
7 4 24 6 39 4 17 -1 30 4 37 16 9 15 12 15 20 4 7 -11 9 -11 14 0 3 8 6 4 6
-8 2 -38 21 -26 21 12 0 19 5 35 11 35 5 0 8 -4 5 -9 -4 -5 -3 -16 0 -25 5
-12 13 -8 39 20 30 32 36 34 56 23 19 -10 25 -9 36 7 7 9 15 15 19 12 10 -11
68 15 95 41 14 14 34 33 45 42 26 22 54 57 54 69 0 6 6 10 13 10 7 0 21 15 32
33 10 17 45 58 77 90 32 31 58 64 58 72 0 8 5 15 11 15 6 0 8 -9 4 -20 -4 -11
-2 -20 4 -20 12 0 15 19 12 64 -2 23 1 28 14 22 13 -5 15 -2 10 15 -5 14 -3
19 3 15 7 -4 18 18 28 54 10 35 20 56 24 50 5 -7 12 0 18 19 6 18 7 29 2 26
-5 -3 -11 -2 -14 3 -7 12 82 105 94 97 7 -4 10 -1 8 8 -2 9 1 16 6 15 5 0 13
7 18 16 5 9 16 16 25 16 11 0 14 6 9 25 -6 25 19 85 35 85 14 0 57 88 88 180
18 52 39 108 48 124 9 17 20 48 25 70 31 141 40 186 44 229 6 52 6 53 -16 28z
m0 -66 c0 -8 -2 -15 -4 -15 -2 0 -6 7 -10 15 -3 8 -1 15 4 15 6 0 10 -7 10
-15z m-21 -71 c-6 -7 -15 -11 -21 -8 -5 3 -4 12 3 20 6 7 15 11 21 8 5 -3 4
-12 -3 -20z m-249 -404 c0 -13 -1 -13 -10 0 -5 8 -10 22 -10 30 0 13 1 13 10
0 5 -8 10 -22 10 -30z m-210 -260 c0 -5 -4 -10 -10 -10 -5 0 -10 5 -10 10 0 6
5 10 10 10 6 0 10 -4 10 -10z m-1300 -314 c0 -3 -4 -8 -10 -11 -5 -3 -10 -1
-10 4 0 6 5 11 10 11 6 0 10 -2 10 -4z m156 -163 c-10 -10 -19 5 -10 18 6 11
8 11 12 0 2 -7 1 -15 -2 -18z m131 -45 c-3 -7 -5 -2 -5 12 0 14 2 19 5 13 2
-7 2 -19 0 -25z m94 -21 c-17 -17 -24 -1 -10 25 12 21 14 21 17 4 2 -10 -1
-23 -7 -29z m239 7 c0 -8 -5 -12 -10 -9 -6 4 -8 11 -5 16 9 14 15 11 15 -7z
m10 -222 c0 -5 -7 -9 -15 -9 -8 0 -15 4 -15 9 0 4 7 8 15 8 8 0 15 -4 15 -8z"/>
<path d="M3806 2976 c-53 -15 -62 -40 -11 -30 36 6 36 6 23 -15 -7 -11 -16
-21 -20 -21 -5 0 -8 -9 -8 -20 0 -25 15 -26 32 -2 7 10 24 26 38 35 13 9 21
17 16 17 -5 0 -3 7 4 15 10 12 9 16 -6 21 -11 4 -21 8 -24 9 -3 1 -23 -3 -44
-9z"/>
<path d="M3285 2970 c-3 -5 1 -10 9 -10 8 0 18 5 21 10 3 6 -1 10 -9 10 -8 0
-18 -4 -21 -10z"/>
<path d="M3725 2843 c-8 -25 -25 -31 -26 -10 0 6 -4 1 -10 -11 -5 -13 -7 -28
-3 -33 3 -5 -1 -9 -9 -9 -10 0 -14 -7 -11 -22 3 -14 -1 -9 -10 10 l-16 33 -30
-17 c-16 -10 -30 -24 -30 -31 0 -21 -16 -15 -28 12 -16 36 -65 31 -92 -10 -19
-28 -20 -29 -20 -7 0 15 -4 21 -12 16 -7 -4 -8 -3 -4 5 4 6 12 8 18 5 8 -5 9
-1 5 10 -4 10 -7 19 -7 22 0 2 -7 1 -15 -2 -9 -4 -15 0 -15 9 0 8 -7 17 -15
21 -9 3 -15 -1 -15 -11 0 -12 -3 -13 -14 -4 -12 10 -13 5 -9 -31 4 -34 2 -40
-7 -28 -9 12 -10 10 -6 -12 4 -16 2 -28 -4 -28 -5 0 -10 16 -10 36 0 24 -4 33
-12 28 -6 -4 -17 1 -25 11 -12 18 -13 18 -13 -3 0 -12 -4 -22 -9 -22 -5 0 -13
-15 -17 -32 -7 -32 -8 -33 -15 -8 -4 14 -7 19 -8 13 -2 -24 -4 -28 -20 -40
-13 -9 -17 -8 -22 5 -3 9 -7 -7 -7 -36 -1 -29 -4 -58 -7 -63 -4 -5 0 -9 8 -9
12 0 14 10 11 43 -3 36 -2 38 5 12 l9 -30 1 28 c0 15 5 27 10 27 5 0 7 -10 5
-22 -3 -14 1 -10 10 10 20 42 26 41 21 -5 -3 -21 -2 -29 1 -19 4 11 12 26 20
34 8 7 14 23 15 35 0 12 5 31 10 42 7 15 8 9 3 -20 -3 -22 -5 -53 -5 -68 1
-17 -3 -26 -9 -22 -5 3 -10 -1 -10 -11 0 -11 6 -15 20 -11 11 3 20 0 21 -6 0
-7 7 6 14 28 l14 40 -2 -37 c-4 -49 18 -58 41 -18 19 33 25 36 44 17 14 -14
96 -47 116 -47 7 0 11 4 7 9 -3 6 10 5 31 -1 42 -11 84 -4 84 16 0 18 33 16
47 -4 6 -9 30 -23 53 -30 39 -13 43 -12 56 5 11 15 14 16 14 3 0 -9 9 -18 20
-21 15 -4 20 0 20 13 0 11 4 21 9 24 4 3 6 -5 4 -18 -3 -13 0 -27 6 -30 6 -4
11 0 11 11 0 15 2 16 10 3 8 -13 11 -12 24 5 15 20 15 20 16 -2 0 -14 6 -23
15 -23 9 0 18 -7 22 -16 4 -12 8 -13 13 -3 6 9 12 8 25 -4 15 -16 15 -18 -10
-27 -15 -6 -56 -7 -95 -4 -85 8 -144 -1 -136 -22 3 -9 -2 -17 -12 -21 -9 -4
-19 -10 -22 -14 -10 -13 -243 -30 -278 -20 -19 6 -73 13 -120 15 l-87 6 50
-15 c87 -25 231 -38 324 -30 164 15 235 15 252 -1 21 -18 66 -4 132 44 26 19
47 31 47 27 0 -4 6 -2 14 4 8 7 20 11 28 10 7 -1 30 5 50 14 21 10 45 17 54
17 12 0 15 6 10 28 -3 15 -3 22 0 15 3 -7 12 -9 20 -6 8 3 14 0 14 -6 0 -6 4
-11 9 -11 5 0 12 21 16 47 5 36 3 48 -9 55 -9 5 -13 15 -9 25 4 11 2 14 -8 9
-8 -3 -21 -9 -30 -12 -8 -3 -22 -16 -30 -29 l-14 -24 -43 39 c-52 48 -79 64
-114 66 -18 1 -28 -4 -31 -15 -3 -10 -7 -4 -12 15 -5 25 -11 30 -26 27 -23 -6
-25 -19 -4 -27 8 -3 15 -14 15 -24 0 -10 9 -28 20 -40 12 -12 16 -22 11 -22
-6 0 -22 18 -35 39 -14 21 -31 41 -38 43 -7 3 -12 18 -10 36 2 27 -1 32 -18
32 -20 0 -77 56 -73 71 1 4 -7 5 -17 2 -11 -3 -20 -9 -20 -14 0 -5 -7 -9 -15
-9 -8 0 -15 5 -15 10 0 18 -20 11 -21 -7 -1 -12 -4 -10 -9 7 l-8 25 -7 -22z
m172 -120 c-3 -10 -5 -4 -5 12 0 17 2 24 5 18 2 -7 2 -21 0 -30z m-495 -20
c-9 -14 -10 -14 -16 5 -9 29 3 51 16 28 5 -10 5 -23 0 -33z m-72 -13 c0 -5 -5
-10 -11 -10 -5 0 -7 5 -4 10 3 6 8 10 11 10 2 0 4 -4 4 -10z m608 -26 c-3 -14
-5 -12 -10 9 -3 19 -2 25 4 19 6 -6 8 -18 6 -28z m-498 16 c0 -5 -2 -10 -4
-10 -3 0 -8 5 -11 10 -3 6 -1 10 4 10 6 0 11 -4 11 -10z m217 -27 c-3 -10 -5
-4 -5 12 0 17 2 24 5 18 2 -7 2 -21 0 -30z m255 12 c3 -13 1 -22 -3 -19 -9 5
-13 44 -5 44 2 0 6 -11 8 -25z m45 -37 c-3 -7 -5 -2 -5 12 0 14 2 19 5 13 2
-7 2 -19 0 -25z m-200 0 c-3 -8 -6 -5 -6 6 -1 11 2 17 5 13 3 -3 4 -12 1 -19z
m30 -24 c-3 -3 -12 -4 -19 -1 -8 3 -5 6 6 6 11 1 17 -2 13 -5z m210 -26 c-3
-8 -6 -5 -6 6 -1 11 2 17 5 13 3 -3 4 -12 1 -19z"/>
<path d="M3162 2700 c0 -14 2 -19 5 -12 2 6 2 18 0 25 -3 6 -5 1 -5 -13z"/>
<path d="M2944 2672 c-17 -15 -34 -40 -38 -57 -5 -21 -4 -26 3 -15 6 8 13 12
16 9 3 -4 -1 -11 -9 -18 -11 -9 -17 -8 -30 4 -9 9 -16 12 -16 6 0 -5 7 -17 15
-25 13 -12 14 -20 4 -37 -8 -15 -8 -19 0 -15 6 4 23 -2 37 -13 14 -11 32 -17
39 -14 17 6 105 -26 105 -38 0 -5 7 -9 15 -9 8 0 15 4 15 8 0 5 26 7 57 4 53
-4 57 -4 44 12 -8 9 -16 14 -19 12 -2 -3 -16 1 -31 8 -14 7 -32 11 -38 9 -7
-3 -39 3 -70 13 -32 9 -66 17 -75 16 -23 -1 -23 14 -1 26 9 6 14 16 10 25 -3
9 -2 19 3 22 6 4 10 -1 10 -9 0 -9 5 -16 10 -16 15 0 12 30 -2 32 -7 0 -17 2
-23 3 -5 2 -19 4 -30 5 -16 1 -14 4 10 15 22 10 30 20 30 39 1 32 -2 32 -41
-2z"/>
<path d="M3080 2680 c0 -3 5 -12 10 -20 8 -13 10 -13 10 2 0 9 6 18 13 21 6 3
2 4 -10 4 -13 -1 -23 -4 -23 -7z"/>
<path d="M2827 2640 c-16 -17 -33 -28 -38 -24 -5 3 -9 -6 -9 -20 0 -31 14 -34
32 -7 7 10 23 21 36 25 15 5 22 15 22 32 0 32 -9 30 -43 -6z"/>
<path d="M3020 2655 c-7 -9 -11 -18 -8 -20 3 -3 11 1 18 10 7 9 11 18 8 20 -3
3 -11 -1 -18 -10z"/>
<path d="M3057 2653 c-2 -10 -5 -34 -5 -53 l-1 -35 14 30 c9 19 14 24 15 13 0
-10 5 -18 10 -18 17 0 11 36 -9 59 -18 20 -20 21 -24 4z"/>
<path d="M4305 2660 c3 -5 8 -10 11 -10 2 0 4 5 4 10 0 6 -5 10 -11 10 -5 0
-7 -4 -4 -10z"/>
<path d="M3106 2651 c-4 -7 -5 -15 -2 -18 9 -9 19 4 14 18 -4 11 -6 11 -12 0z"/>
<path d="M3142 2633 c-8 -8 -11 -21 -7 -31 6 -14 9 -11 16 12 10 36 8 39 -9
19z"/>
<path d="M2740 2596 c0 -9 -4 -16 -10 -16 -5 0 -10 -4 -10 -10 0 -16 14 -11
27 10 8 12 9 21 3 25 -6 3 -10 -1 -10 -9z"/>
<path d="M2342 2570 c0 -14 2 -19 5 -12 2 6 2 18 0 25 -3 6 -5 1 -5 -13z"/>
<path d="M2730 2530 c-9 -6 -10 -10 -3 -10 6 0 15 5 18 10 8 12 4 12 -15 0z"/>
<path d="M4720 2223 c0 -43 5 -144 12 -224 15 -191 4 -297 -41 -391 -17 -37
-36 -70 -41 -73 -6 -3 -10 -13 -10 -22 0 -33 39 19 84 111 93 190 122 407 72
538 -29 76 -54 126 -67 133 -5 4 -9 -26 -9 -72z"/>
<path d="M2225 2208 c-29 -42 -30 -46 -29 -158 1 -63 6 -133 11 -155 64 -247
92 -336 93 -294 0 8 -11 58 -25 110 -36 134 -42 223 -21 287 10 29 21 52 26
52 10 0 28 81 32 145 3 49 2 50 -27 53 -26 3 -35 -3 -60 -40z"/>
<path d="M2730 2215 c-8 -9 -8 -15 -2 -15 12 0 26 19 19 26 -2 2 -10 -2 -17
-11z"/>
<path d="M3576 2211 c-3 -5 -15 -7 -26 -4 -11 3 -20 1 -20 -4 0 -12 -43 -11
-53 1 -6 8 -10 7 -13 -1 -3 -7 -11 -10 -19 -7 -7 3 -18 -4 -24 -15 -14 -26
-15 -23 20 -60 28 -30 32 -31 43 -15 19 26 38 8 31 -29 -5 -24 -4 -28 4 -17 9
12 11 11 11 -9 0 -19 4 -22 23 -17 21 5 77 -9 105 -28 7 -4 16 -5 20 -1 4 4 2
10 -5 12 -14 5 33 83 49 83 6 0 7 7 4 15 -3 10 1 18 12 22 9 4 26 15 36 25 19
17 18 18 -8 28 -15 5 -58 11 -96 12 -39 2 -70 6 -70 11 0 10 -18 9 -24 -2z
m-59 -73 c-3 -8 -6 -5 -6 6 -1 11 2 17 5 13 3 -3 4 -12 1 -19z m20 -40 c-3 -7
-5 -2 -5 12 0 14 2 19 5 13 2 -7 2 -19 0 -25z m43 2 c0 -5 -2 -10 -4 -10 -3 0
-8 5 -11 10 -3 6 -1 10 4 10 6 0 11 -4 11 -10z"/>
<path d="M3431 2104 c0 -11 3 -14 6 -6 3 7 2 16 -1 19 -3 4 -6 -2 -5 -13z"/>
<path d="M3490 2029 c0 -5 -4 -8 -9 -5 -4 3 -6 -7 -3 -22 3 -15 7 -21 10 -14
2 6 7 10 11 7 5 -2 6 7 3 20 -4 25 -12 34 -12 14z"/>
<path d="M3687 2033 c-2 -5 -1 -19 4 -33 7 -23 7 -23 8 8 1 31 -3 40 -12 25z"/>
<path d="M3065 1930 c3 -5 8 -10 11 -10 2 0 4 5 4 10 0 6 -5 10 -11 10 -5 0
-7 -4 -4 -10z"/>
<path d="M3742 1870 c0 -14 2 -19 5 -12 2 6 2 18 0 25 -3 6 -5 1 -5 -13z"/>
<path d="M3691 1815 c-1 -17 -3 -18 -12 -5 -8 11 -9 9 -3 -10 12 -45 28 -40
21 7 -2 17 -5 20 -6 8z"/>
<path d="M3391 1774 c0 -11 3 -14 6 -6 3 7 2 16 -1 19 -3 4 -6 -2 -5 -13z"/>
<path d="M3532 1750 c0 -14 2 -19 5 -12 2 6 2 18 0 25 -3 6 -5 1 -5 -13z"/>
<path d="M3285 1751 c-3 -5 -1 -12 5 -16 5 -3 10 1 10 9 0 18 -6 21 -15 7z"/>
<path d="M3631 1744 c0 -11 3 -14 6 -6 3 7 2 16 -1 19 -3 4 -6 -2 -5 -13z"/>
<path d="M4591 1448 c-14 -23 -14 -23 8 -4 22 20 25 26 13 26 -4 0 -13 -10
-21 -22z"/>
<path d="M4557 1413 c-4 -3 -7 -11 -7 -17 0 -6 5 -5 12 2 6 6 9 14 7 17 -3 3
-9 2 -12 -2z"/>
<path d="M3720 1360 c0 -5 5 -10 11 -10 5 0 7 5 4 10 -3 6 -8 10 -11 10 -2 0
-4 -4 -4 -10z"/>
</g>
</svg>
