<?xml version="1.0" standalone="no"?>
<!DOCTYPE svg PUBLIC "-//W3C//DTD SVG 20010904//EN"
 "http://www.w3.org/TR/2001/REC-SVG-20010904/DTD/svg10.dtd">
<svg version="1.0" xmlns="http://www.w3.org/2000/svg"
 width="1280.000000pt" height="725.000000pt" viewBox="0 0 1280.000000 725.000000"
 preserveAspectRatio="xMidYMid meet">
<metadata>
Created by potrace 1.15, written by Peter Selinger 2001-2017
</metadata>
<g transform="translate(0.000000,725.000000) scale(0.100000,-0.100000)"
fill="#000000" stroke="none">
<path d="M2710 7240 c-855 -39 -1636 -152 -2497 -362 l-213 -52 0 -3198 c0
-2208 3 -3198 10 -3198 6 0 91 20 188 44 1591 400 3167 481 4782 245 113 -16
250 -38 305 -48 55 -11 152 -29 215 -41 203 -37 476 -99 840 -191 472 -118
569 -140 805 -188 1273 -257 2527 -315 3785 -175 584 65 1052 148 1658 296
l212 52 0 3198 c0 2208 -3 3198 -10 3198 -6 0 -91 -20 -188 -44 -1591 -400
-3167 -481 -4782 -245 -113 16 -250 38 -305 48 -55 11 -152 29 -215 41 -203
37 -476 99 -840 191 -472 118 -569 140 -805 188 -584 118 -1166 193 -1780 231
-235 15 -929 20 -1165 10z"/>
</g>
</svg>
