<?xml version="1.0" standalone="no"?>
<!DOCTYPE svg PUBLIC "-//W3C//DTD SVG 20010904//EN"
 "http://www.w3.org/TR/2001/REC-SVG-20010904/DTD/svg10.dtd">
<svg version="1.0" xmlns="http://www.w3.org/2000/svg"
 width="1280.000000pt" height="720.000000pt" viewBox="0 0 1280.000000 720.000000"
 preserveAspectRatio="xMidYMid meet">
<metadata>
Created by potrace 1.15, written by Peter Selinger 2001-2017
</metadata>
<g transform="translate(0.000000,720.000000) scale(0.100000,-0.100000)"
fill="#000000" stroke="none">
<path d="M1335 6709 c-109 -17 -200 -31 -201 -32 -1 -1 -34 -119 -72 -262 -76
-284 -109 -434 -143 -654 -20 -130 -21 -152 -10 -235 7 -50 25 -137 41 -193
42 -147 124 -525 149 -678 11 -71 36 -227 55 -345 19 -118 38 -244 41 -280 6
-65 -18 -307 -51 -500 -8 -52 -26 -162 -40 -245 -14 -82 -52 -274 -85 -425
-70 -321 -90 -480 -78 -625 14 -182 39 -369 64 -480 164 -748 174 -806 175
-994 l0 -74 53 6 c28 3 120 15 202 27 169 23 242 19 430 -25 102 -24 278 -58
485 -94 63 -11 240 -37 394 -56 153 -20 301 -40 329 -46 27 -5 84 -9 126 -9
177 0 681 65 1131 145 429 76 497 81 778 55 125 -11 274 -29 332 -40 120 -22
366 -66 583 -105 220 -39 415 -49 612 -30 88 8 245 21 350 30 167 13 442 54
678 101 195 39 586 45 887 14 58 -6 166 -17 240 -25 74 -8 221 -32 325 -55
388 -83 605 -88 1070 -25 392 53 500 69 585 87 74 15 150 21 345 25 232 5 263
3 435 -21 102 -14 208 -28 237 -32 l51 -6 8 47 c10 72 -5 308 -28 420 -11 55
-28 143 -39 195 -10 52 -23 113 -29 135 -37 146 -104 480 -116 584 -40 343
-35 465 36 781 65 294 88 408 105 515 9 55 26 170 40 255 64 410 64 432 10
760 -14 85 -34 216 -45 290 -11 74 -25 155 -30 180 -63 294 -87 397 -120 525
-71 271 -72 287 -30 533 34 199 58 312 105 487 63 234 78 295 74 299 -4 5
-131 23 -358 52 -107 14 -157 14 -355 5 -130 -6 -257 -18 -291 -26 -33 -8
-159 -28 -280 -45 -121 -17 -267 -37 -325 -45 -58 -8 -187 -22 -288 -32 -173
-16 -192 -16 -375 0 -113 10 -250 30 -332 48 -224 48 -230 49 -455 75 -358 40
-572 48 -814 29 -113 -9 -212 -18 -219 -20 -40 -16 -487 -88 -617 -100 -625
-59 -757 -60 -1052 -6 -561 103 -693 124 -893 143 -191 18 -239 19 -367 9 -80
-6 -168 -15 -195 -20 -26 -6 -97 -19 -158 -30 -60 -11 -159 -29 -220 -40 -97
-18 -182 -31 -485 -72 -147 -19 -446 -49 -499 -49 -29 0 -95 7 -145 15 -50 8
-215 31 -366 50 -151 20 -324 45 -385 56 -258 47 -335 62 -415 81 -114 26
-255 48 -310 47 -25 -1 -135 -14 -245 -30z"/>
</g>
</svg>
