<?xml version="1.0" standalone="no"?>
<!DOCTYPE svg PUBLIC "-//W3C//DTD SVG 20010904//EN"
 "http://www.w3.org/TR/2001/REC-SVG-20010904/DTD/svg10.dtd">
<svg version="1.0" xmlns="http://www.w3.org/2000/svg"
 width="1090.000000pt" height="1280.000000pt" viewBox="0 0 1090.000000 1280.000000"
 preserveAspectRatio="xMidYMid meet">
<g transform="translate(0.000000,1280.000000) scale(0.100000,-0.100000)"
fill="#000000" stroke="none">
<path d="M2350 12781 c-134 -52 -211 -133 -260 -275 -24 -71 -23 -62 -120
-1181 -44 -506 -82 -925 -84 -931 -6 -15 1 -14 -851 -89 -532 -46 -754 -69
-790 -81 -61 -21 -151 -108 -183 -176 -35 -76 -64 -198 -59 -248 3 -25 19
-193 36 -375 29 -301 69 -758 281 -3185 121 -1382 249 -2843 280 -3200 17
-190 34 -400 39 -467 8 -110 12 -130 44 -198 39 -81 110 -165 167 -196 19 -11
62 -42 94 -69 70 -58 127 -80 212 -80 34 0 372 27 751 60 1078 94 2261 198
2568 225 153 14 307 25 342 25 51 0 400 -91 1910 -496 1771 -475 1851 -496
1919 -492 133 9 252 98 320 243 23 48 91 284 214 743 99 370 180 680 180 689
0 9 81 321 181 692 260 973 522 1952 740 2764 355 1327 568 2122 593 2219 31
118 32 137 6 235 -23 84 -31 103 -66 150 -13 17 -33 57 -45 89 -16 42 -39 75
-79 116 -51 50 -66 59 -141 81 -46 14 -516 141 -1044 282 -528 142 -967 263
-975 270 -8 8 -37 19 -63 26 l-48 12 5 46 c17 129 156 1781 156 1846 0 115
-14 161 -78 255 -61 88 -125 142 -190 160 -21 5 -219 25 -442 45 -223 19 -712
62 -1087 95 -376 33 -991 87 -1368 120 -1605 141 -2072 181 -2455 215 -223 19
-429 39 -459 45 -71 13 -97 12 -151 -9z"/>
</g>
</svg>
