<?xml version="1.0" standalone="no"?>
<!DOCTYPE svg PUBLIC "-//W3C//DTD SVG 20010904//EN"
 "http://www.w3.org/TR/2001/REC-SVG-20010904/DTD/svg10.dtd">
<svg version="1.0" xmlns="http://www.w3.org/2000/svg"
 width="712.000000pt" height="1072.000000pt" viewBox="0 0 712.000000 1072.000000"
 preserveAspectRatio="xMidYMid meet">

<g transform="translate(0.000000,1072.000000) scale(0.100000,-0.100000)"
fill="#000000" stroke="none">
<path d="M3830 8583 c-14 -3 -29 -11 -33 -19 -4 -8 -16 -14 -26 -14 -10 0 -26
-9 -36 -20 -10 -11 -23 -20 -28 -20 -6 0 -19 -7 -28 -16 -14 -12 -34 -16 -76
-14 -105 4 -127 4 -176 -3 -31 -4 -57 -3 -70 5 -20 10 -40 13 -124 17 -26 1
-33 5 -33 21 0 13 -5 18 -15 14 -9 -4 -15 0 -15 7 0 10 -3 10 -8 3 -4 -6 -36
-14 -72 -17 -35 -3 -66 -10 -68 -16 -2 -6 -13 -11 -24 -11 -14 0 -18 5 -14 15
4 10 -1 15 -15 15 -24 0 -159 -67 -159 -79 0 -14 -52 -61 -61 -55 -5 3 -19 -2
-31 -10 -12 -9 -30 -16 -38 -16 -9 0 -39 -19 -66 -42 -28 -24 -73 -61 -101
-82 -36 -27 -53 -48 -57 -70 -4 -17 -18 -42 -31 -55 -14 -13 -25 -28 -25 -33
0 -6 -6 -8 -14 -5 -8 3 -16 -2 -19 -15 -4 -15 -11 -18 -27 -13 -15 5 -28 0
-45 -19 -13 -14 -29 -26 -35 -26 -20 0 -91 -41 -96 -55 -3 -7 -12 -11 -19 -9
-16 6 -54 -33 -60 -61 -2 -11 -4 -36 -4 -55 -1 -139 -9 -219 -25 -255 -40 -89
-49 -119 -65 -215 -58 -338 -56 -661 5 -1150 4 -30 15 -66 25 -80 25 -34 49
-132 50 -205 1 -33 3 -51 6 -40 2 11 15 65 28 120 20 88 32 181 50 385 8 93
32 200 49 219 12 13 16 39 16 107 0 49 4 84 8 77 9 -14 8 125 -2 195 -4 28
-12 52 -17 52 -12 0 -1 207 13 233 5 10 13 15 19 12 5 -4 9 -1 9 5 0 6 5 8 10
5 6 -3 14 4 19 17 l9 23 7 -27 c6 -23 9 -25 21 -13 8 7 11 21 7 30 -5 14 -2
16 16 10 17 -5 27 -1 38 15 12 16 21 20 40 15 20 -5 24 -3 20 9 -5 11 0 16 14
16 11 0 30 10 42 23 27 28 54 41 85 38 12 -1 22 2 22 8 0 6 15 11 34 11 21 0
42 9 59 24 14 13 44 27 67 31 22 4 37 11 34 16 -3 6 8 15 25 22 17 6 31 17 31
24 0 7 7 13 16 13 9 0 34 10 56 22 31 18 41 20 47 9 12 -18 23 2 14 26 -7 17
-6 17 11 0 11 -11 25 -15 35 -12 30 12 35 10 41 -20 4 -24 7 -27 13 -12 4 10
11 16 16 13 5 -4 12 0 14 6 3 8 6 6 6 -4 1 -10 6 -18 11 -18 6 0 10 8 10 18 1
15 2 15 13 2 7 -9 20 -14 31 -12 11 2 16 0 12 -7 -5 -7 7 -9 38 -5 36 5 47 3
61 -14 10 -11 25 -18 34 -15 11 3 39 -16 76 -51 33 -30 61 -54 63 -51 2 2 -3
11 -12 20 -23 23 -20 32 4 10 11 -10 20 -26 20 -37 0 -10 4 -18 9 -18 5 0 11
-10 15 -22 4 -17 8 -20 15 -10 6 11 11 11 24 -2 9 -9 18 -24 21 -34 8 -24 65
-66 92 -69 11 -1 42 -13 69 -27 57 -31 163 -37 189 -11 8 8 19 15 24 15 4 0
19 11 32 25 13 14 29 25 36 25 7 0 18 9 24 20 18 33 42 40 80 21 19 -9 48 -22
65 -29 l30 -14 -20 22 -20 22 48 -7 c37 -6 47 -4 45 6 -3 15 31 25 41 12 3 -5
18 -16 34 -26 15 -10 27 -26 27 -37 0 -14 7 -20 23 -20 22 0 22 -1 -3 -13 -21
-11 -27 -11 -38 2 -14 17 -13 11 5 -29 14 -30 26 -63 27 -72 2 -12 16 -21 16
-10 0 7 5 12 10 12 6 0 10 -7 10 -16 0 -8 4 -13 10 -9 5 3 7 12 3 20 -3 9 1
15 10 15 9 0 25 12 36 26 l20 25 23 -34 c12 -19 39 -46 60 -58 21 -13 38 -27
38 -31 0 -5 7 -8 15 -8 8 0 15 4 15 8 0 4 18 8 40 7 34 -1 39 2 34 17 -3 12 0
18 10 18 9 0 17 5 17 10 1 6 2 15 3 22 0 6 14 12 30 13 20 0 33 -6 44 -23 20
-31 33 -113 20 -129 -7 -9 -7 -13 2 -13 13 0 5 -56 -11 -75 -7 -9 -12 -165
-10 -302 1 -18 14 -61 31 -96 16 -35 30 -70 30 -78 0 -8 7 -23 15 -33 8 -11
15 -28 15 -38 0 -9 6 -37 14 -60 8 -24 17 -72 20 -108 15 -197 42 -372 76
-495 l20 -70 -6 92 c-8 127 3 230 28 255 13 13 23 16 31 10 8 -7 27 6 62 40
41 41 46 49 25 43 -14 -4 -39 -18 -57 -31 -35 -27 -53 -30 -53 -12 0 25 51
334 60 363 22 74 31 211 26 391 -14 441 -17 489 -32 522 -9 20 -13 44 -9 59 3
14 2 30 -3 36 -5 7 -15 29 -21 50 -7 20 -17 37 -22 37 -5 0 -9 15 -9 34 0 18
-7 39 -15 46 -13 11 -13 14 2 26 17 13 17 13 -1 14 -17 0 -17 2 -2 24 15 24
15 26 -13 42 -17 10 -27 23 -24 31 13 34 -21 84 -101 148 -21 17 -50 40 -65
52 -14 13 -29 23 -32 23 -4 0 -9 12 -12 28 -8 37 -79 112 -150 157 -33 21 -61
44 -64 52 -3 7 -11 13 -18 13 -8 0 -20 6 -27 13 -7 7 -31 22 -53 33 -30 14
-46 32 -65 70 -30 63 -82 94 -155 94 -38 0 -46 3 -41 15 3 10 -1 15 -12 16
-52 4 -66 8 -92 27 -18 14 -38 20 -58 17 -25 -3 -30 -1 -25 11 5 13 -4 15 -58
13 -54 -2 -64 0 -63 14 2 17 -27 21 -86 10z m334 -101 c3 -5 -1 -9 -9 -9 -8 0
-15 4 -15 9 0 4 4 8 9 8 6 0 12 -4 15 -8z m-1959 -531 c-3 -6 -11 -11 -17 -11
-6 0 -6 6 2 15 14 17 26 13 15 -4z m1745 -540 c0 -5 -7 -12 -16 -15 -14 -5
-15 -4 -4 9 14 17 20 19 20 6z m26 -17 c-3 -9 -6 -18 -6 -20 0 -2 -8 -4 -17
-4 -17 1 -17 1 0 11 9 6 15 14 12 20 -4 5 -1 9 5 9 7 0 9 -7 6 -16z m-142 -10
c9 -3 16 -14 16 -23 0 -12 -2 -13 -8 -3 -5 7 -16 10 -25 6 -17 -6 -23 6 -10
19 8 8 8 8 27 1z m-59 -32 c-3 -3 -11 0 -18 7 -9 10 -8 11 6 5 10 -3 15 -9 12
-12z m112 12 c-3 -3 -12 -4 -19 -1 -8 3 -5 6 6 6 11 1 17 -2 13 -5z m10 -20
c-3 -3 -12 -4 -19 -1 -8 3 -5 6 6 6 11 1 17 -2 13 -5z m498 -4 c3 -5 2 -10 -4
-10 -5 0 -13 5 -16 10 -3 6 -2 10 4 10 5 0 13 -4 16 -10z m-455 -29 c0 -19
-71 -43 -107 -36 -50 9 -29 26 44 35 32 4 59 8 61 9 1 0 2 -3 2 -8z m-1743
-313 c-3 -8 -6 -5 -6 6 -1 11 2 17 5 13 3 -3 4 -12 1 -19z"/>
<path d="M4424 6514 c7 -17 -1 -17 -78 2 -19 5 -27 3 -22 -4 4 -7 -3 -7 -24 1
-33 12 -49 5 -32 -16 18 -22 4 -26 -62 -20 -49 4 -64 2 -75 -11 -7 -9 -22 -16
-32 -16 -11 0 -27 -4 -37 -9 -28 -16 -51 -23 -102 -35 -43 -11 -100 -37 -100
-47 0 -4 -3 -16 -7 -26 -6 -16 -5 -16 10 -4 9 7 17 9 17 3 0 -15 -26 -33 -35
-24 -5 4 -5 -1 -2 -11 4 -10 7 -28 7 -40 0 -20 0 -20 15 -1 13 17 14 17 15 2
0 -21 29 -17 137 18 39 13 89 24 110 24 21 1 48 6 61 13 15 9 40 11 74 7 57
-8 101 -2 92 11 -3 5 2 9 10 9 8 0 17 -4 20 -8 3 -5 18 -8 33 -7 15 1 19 0 8
-2 -38 -9 -37 -21 4 -28 23 -4 41 -10 41 -14 0 -4 13 -6 28 -3 17 2 35 -2 44
-12 9 -8 18 -12 21 -9 4 3 37 2 74 -3 l68 -7 -55 -11 -55 -11 40 -4 40 -4 -50
-12 -50 -13 75 -2 c57 -2 68 -4 45 -10 -28 -7 -29 -8 -5 -10 l25 -2 -25 -7
-25 -7 30 -10 c50 -17 64 -8 58 34 -4 20 -12 46 -19 57 -7 11 -15 39 -18 63
-7 59 -49 132 -94 161 -20 14 -47 34 -59 44 -30 27 -149 36 -139 11z m207
-221 c-11 -5 -11 -7 0 -14 12 -7 11 -9 -1 -9 -8 1 -24 7 -34 15 -19 14 -18 15
15 14 19 0 28 -3 20 -6z"/>
<path d="M2443 6481 c-16 -14 -24 -23 -19 -18 13 9 26 9 26 -1 0 -5 -15 -15
-34 -24 -20 -10 -41 -32 -54 -56 -12 -22 -27 -50 -34 -62 -11 -18 -11 -23 5
-31 15 -9 16 -13 5 -27 -11 -14 -10 -15 12 -9 14 4 41 7 60 8 l35 1 -43 11
c-39 11 -41 13 -23 24 13 8 22 9 26 2 4 -5 21 -8 38 -6 18 2 24 2 15 0 -15 -4
-15 -6 3 -24 20 -20 59 -26 59 -8 0 6 -10 8 -22 5 -15 -4 -12 -1 7 9 17 8 40
14 53 15 22 0 22 1 7 17 -11 11 -19 13 -23 6 -5 -8 -22 -8 -52 -3 -25 5 -49 9
-54 10 -6 0 -5 5 1 11 8 8 17 8 33 -1 13 -7 37 -10 54 -7 140 26 149 26 180
13 17 -8 57 -17 89 -19 32 -3 65 -11 73 -18 11 -9 14 -9 14 1 0 9 6 9 23 -2
12 -8 31 -18 41 -21 16 -6 17 -5 6 8 -17 20 -8 19 42 -7 44 -23 138 -41 138
-26 0 5 -4 18 -10 28 -8 15 -6 18 14 16 12 -2 29 -7 36 -11 7 -5 5 3 -6 18
-10 14 -28 29 -39 32 -19 6 -18 7 5 15 23 7 23 8 3 9 -12 1 -30 4 -40 8 -15 6
-13 9 12 14 29 6 29 7 -7 8 -21 0 -38 6 -38 11 0 6 -7 10 -15 10 -8 0 -23 4
-33 9 -9 5 -37 15 -61 22 -24 7 -49 18 -55 24 -21 23 -62 3 -57 -27 0 -5 -9
-8 -22 -7 -12 0 -16 3 -9 6 28 11 8 21 -50 25 -35 3 -64 10 -66 16 -2 7 -15
12 -28 12 -26 0 -77 -28 -70 -39 2 -3 -6 -6 -17 -6 -12 -1 -33 -4 -47 -9 -20
-6 -19 -4 8 13 31 20 42 41 22 41 -18 0 -64 -27 -82 -49 -10 -12 -23 -21 -30
-21 -7 0 6 18 30 40 23 22 41 41 40 41 -20 10 -53 1 -75 -20z m192 -91 c3 -5
1 -10 -4 -10 -6 0 -11 5 -11 10 0 6 2 10 4 10 3 0 8 -4 11 -10z m-190 -40
c-11 -5 -31 -9 -45 -9 -23 0 -23 1 -5 9 11 5 31 9 45 9 23 0 23 -1 5 -9z m585
-15 c16 -9 19 -14 9 -15 -8 0 -24 7 -35 15 -24 18 -7 19 26 0z m-142 -4 c19
-12 -9 -22 -39 -14 -22 6 -22 7 -3 14 25 10 27 10 42 0z m199 -17 c-3 -3 -12
-4 -19 -1 -8 3 -5 6 6 6 11 1 17 -2 13 -5z"/>
<path d="M2798 6473 c7 -3 16 -2 19 1 4 3 -2 6 -13 5 -11 0 -14 -3 -6 -6z"/>
<path d="M2588 6323 c7 -3 16 -2 19 1 4 3 -2 6 -13 5 -11 0 -14 -3 -6 -6z"/>
<path d="M4540 6235 l-35 -13 36 -1 c19 -1 39 3 45 8 5 5 20 11 34 14 19 3 16
4 -10 5 -19 0 -51 -6 -70 -13z"/>
<path d="M2353 6222 c-51 -5 -39 -17 20 -19 28 -1 45 1 37 4 -8 3 -17 9 -20
12 -3 3 -20 5 -37 3z"/>
<path d="M2298 6163 c7 -3 16 -2 19 1 4 3 -2 6 -13 5 -11 0 -14 -3 -6 -6z"/>
<path d="M4075 6153 c-11 -3 -32 -14 -47 -24 -14 -11 -30 -19 -36 -19 -5 0
-33 -25 -62 -57 -48 -51 -54 -55 -73 -43 -16 9 -22 10 -25 1 -2 -6 -10 -17
-17 -25 -8 -7 -15 -35 -16 -60 -3 -43 1 -50 32 -77 22 -19 41 -28 54 -24 11 2
25 5 31 5 7 0 15 11 18 25 6 23 10 25 40 19 19 -3 43 -1 53 4 16 9 14 11 -12
17 -50 11 -55 14 -55 29 0 14 113 106 131 106 5 0 9 -18 9 -39 0 -29 8 -49 33
-79 70 -88 190 -58 218 55 15 59 32 58 82 -9 17 -23 23 -39 17 -43 -6 -4 -8
-15 -5 -25 4 -13 -2 -20 -25 -28 -16 -6 -30 -15 -30 -20 0 -16 30 -23 52 -11
15 8 22 8 28 -1 9 -15 46 -8 43 8 -2 8 4 9 22 2 26 -10 29 -6 26 30 -1 10 9
15 29 16 35 1 50 12 32 23 -7 4 -10 21 -8 40 2 21 -1 34 -10 38 -8 3 -11 9 -8
14 9 15 -140 105 -206 123 -59 17 -63 17 -82 -1 -21 -19 -108 -28 -108 -11 0
6 -6 6 -14 -1 -11 -10 -17 -8 -26 6 -8 13 -10 14 -7 2 3 -9 1 -22 -3 -30 -7
-10 -11 -8 -19 11 -10 25 -10 25 -10 2 -1 -18 -13 -28 -55 -47 -30 -13 -78
-41 -107 -62 -36 -25 -49 -31 -41 -17 14 26 72 84 84 84 5 0 6 5 2 12 -5 8 -2
9 10 5 9 -4 15 -3 12 1 -3 5 13 19 34 33 22 13 40 30 40 37 0 6 -1 11 -2 11
-2 -1 -12 -4 -23 -6z m270 -53 c-3 -5 -12 -10 -18 -10 -7 0 -6 4 3 10 19 12
23 12 15 0z m75 -20 c0 -5 -7 -10 -16 -10 -8 0 -12 5 -9 10 3 6 10 10 16 10 5
0 9 -4 9 -10z m-240 -95 c0 -8 -7 -15 -15 -15 -8 0 -15 7 -15 15 0 8 7 15 15
15 8 0 15 -7 15 -15z m98 -3 c2 -7 -2 -10 -12 -6 -9 3 -16 11 -16 16 0 13 23
5 28 -10z"/>
<path d="M4110 6150 c0 -12 8 -12 35 0 18 8 17 9 -7 9 -16 1 -28 -3 -28 -9z"/>
<path d="M4178 6153 c7 -3 16 -2 19 1 4 3 -2 6 -13 5 -11 0 -14 -3 -6 -6z"/>
<path d="M2828 6133 c7 -3 16 -2 19 1 4 3 -2 6 -13 5 -11 0 -14 -3 -6 -6z"/>
<path d="M2865 6130 c3 -6 13 -10 21 -10 8 0 14 -4 14 -9 0 -14 -33 -23 -40
-10 -6 8 -9 7 -13 -2 -4 -12 -7 -11 -16 1 -6 8 -11 11 -11 5 0 -5 -23 -10 -50
-10 -28 0 -50 -2 -50 -6 0 -3 -13 -6 -30 -6 -16 0 -38 -7 -48 -16 -10 -9 -24
-17 -30 -17 -18 0 -26 22 -11 31 10 6 7 9 -11 9 -14 -1 -32 -6 -41 -13 -70
-55 -73 -58 -59 -67 9 -6 19 -1 32 16 23 29 34 30 41 4 3 -10 2 -19 -2 -18 -3
1 -19 -4 -35 -11 -16 -6 -35 -10 -42 -7 -8 3 -11 0 -7 -10 3 -7 0 -14 -6 -14
-6 0 -11 -9 -11 -20 0 -14 7 -20 24 -20 27 0 112 35 121 50 6 10 78 50 90 50
3 0 5 -16 5 -35 0 -88 54 -131 159 -126 31 1 87 64 96 107 3 19 9 34 13 34 4
0 22 -14 41 -30 18 -17 42 -30 52 -30 10 0 21 -4 24 -10 8 -13 65 -13 65 -1 0
6 -9 16 -20 24 -14 9 -18 20 -14 32 11 28 -86 111 -144 123 -87 19 -113 22
-107 12z m-279 -97 c-4 -4 -11 -1 -16 7 -16 25 -11 35 7 17 9 -9 13 -20 9 -24z
m504 -23 c8 -5 12 -11 10 -14 -3 -2 -14 2 -24 10 -22 15 -10 19 14 4z m-287
-25 c1 -5 -6 -11 -15 -13 -11 -2 -18 3 -18 13 0 17 30 18 33 0z m97 5 c0 -5
-7 -10 -15 -10 -8 0 -15 5 -15 10 0 6 7 10 15 10 8 0 15 -4 15 -10z"/>
<path d="M2680 6109 c0 -5 5 -7 10 -4 6 3 10 8 10 11 0 2 -4 4 -10 4 -5 0 -10
-5 -10 -11z"/>
<path d="M1787 6094 c-12 -13 -7 -72 7 -86 8 -8 16 -23 18 -34 2 -10 4 12 4
50 -1 64 -11 88 -29 70z"/>
<path d="M5245 6005 c-30 -31 -30 -23 -5 -126 11 -46 23 -94 25 -106 8 -34 22
-28 45 17 21 40 26 137 13 213 -6 36 -43 37 -78 2z"/>
<path d="M2516 5918 c-17 -9 -15 -12 20 -24 46 -16 55 -11 26 16 -25 23 -22
23 -46 8z"/>
<path d="M3030 5897 c-35 -11 -35 -11 30 -17 70 -6 100 -1 97 15 -3 14 -86 15
-127 2z"/>
<path d="M2600 5879 c7 -11 14 -19 16 -16 7 7 -7 37 -17 37 -6 0 -5 -9 1 -21z"/>
<path d="M2870 5843 c0 -4 5 -15 10 -23 8 -13 10 -13 10 2 0 9 -4 20 -10 23
-5 3 -10 3 -10 -2z"/>
<path d="M4255 5820 c3 -5 8 -10 11 -10 2 0 4 5 4 10 0 6 -5 10 -11 10 -5 0
-7 -4 -4 -10z"/>
<path d="M5082 5768 c-7 -7 -12 -16 -12 -21 0 -5 7 -1 16 8 9 9 14 18 12 20
-2 3 -10 -1 -16 -7z"/>
<path d="M5012 5408 c-6 -7 -13 -30 -17 -51 l-7 -38 37 34 c25 23 36 40 32 51
-8 19 -30 21 -45 4z"/>
<path d="M4966 5269 c-3 -8 -21 -67 -41 -133 -19 -65 -38 -123 -41 -127 -3 -5
-1 -9 4 -9 5 0 15 14 22 30 7 17 16 30 21 30 5 0 9 11 9 24 0 12 4 36 9 52 19
62 33 135 27 141 -3 3 -8 0 -10 -8z"/>
<path d="M4865 4975 c-9 -28 -23 -56 -43 -88 -15 -24 -15 -29 -2 -37 20 -13
28 -4 36 38 4 20 14 42 23 48 12 9 13 17 4 35 -10 23 -11 23 -18 4z"/>
<path d="M3280 4900 c0 -5 6 -10 14 -10 8 0 18 5 21 10 3 6 -3 10 -14 10 -12
0 -21 -4 -21 -10z"/>
<path d="M3775 4895 c-19 -16 -19 -16 12 -12 18 2 30 0 27 -4 -2 -4 0 -10 5
-14 6 -3 2 -14 -9 -25 -24 -24 -26 -40 -5 -40 12 0 13 -5 4 -24 -12 -27 -39
-25 -39 3 -1 13 -4 11 -20 -7 l-19 -22 -4 22 -4 23 -8 -22 c-4 -13 -11 -23
-16 -23 -5 0 -9 -7 -9 -16 0 -9 -5 -12 -12 -8 -8 5 -7 0 2 -11 12 -15 12 -17
1 -10 -11 6 -13 4 -8 -8 3 -10 4 -17 1 -17 -2 0 -9 11 -14 25 -11 29 -22 31
-44 10 -8 -8 -19 -15 -24 -15 -6 0 -13 -7 -16 -16 -3 -8 -10 -12 -16 -9 -6 4
-8 10 -5 15 7 12 -25 28 -51 26 -12 0 -32 -12 -44 -26 -19 -22 -21 -23 -18 -5
2 12 -9 33 -29 55 -23 25 -33 30 -33 18 0 -9 -5 -18 -12 -20 -6 -2 -13 -23
-14 -46 -2 -49 -13 -70 -25 -51 -4 7 -3 19 3 26 6 7 8 23 6 36 -2 13 1 29 9
35 7 7 13 18 13 25 0 6 -8 0 -17 -13 -10 -14 -17 -28 -15 -32 3 -12 -26 -9
-33 2 -10 16 -46 -61 -40 -85 2 -11 -3 -3 -12 18 -8 20 -20 37 -25 37 -5 0 -6
-6 -2 -12 12 -19 12 -47 0 -45 -6 1 -10 -4 -8 -10 1 -7 -4 -13 -12 -13 -13 0
-32 -77 -21 -88 3 -3 5 0 5 7 0 7 4 10 9 6 6 -3 8 10 6 32 -4 29 -3 32 3 13 8
-24 8 -24 16 10 4 19 10 30 13 23 2 -7 10 -10 17 -7 10 4 12 -2 9 -19 -3 -14
0 -28 6 -31 7 -4 9 -1 5 8 -3 9 4 32 16 51 12 20 19 39 16 43 -4 3 -11 0 -16
-8 -6 -9 -10 -10 -10 -3 0 7 6 16 14 20 7 4 15 15 18 23 3 8 7 -2 9 -22 3 -20
2 -35 -2 -32 -10 6 -20 -41 -13 -63 5 -15 4 -15 -5 -3 -9 13 -11 13 -11 -1 0
-12 8 -16 25 -15 16 0 23 6 20 14 -2 6 0 12 6 12 5 0 14 -12 20 -27 l10 -26
27 33 c27 31 29 32 45 15 10 -9 21 -15 24 -11 4 3 14 -1 24 -10 12 -11 41 -18
86 -19 77 -4 103 1 103 19 0 19 38 17 45 -4 4 -14 13 -17 35 -15 21 3 30 0 30
-10 0 -23 36 -17 48 8 l11 22 0 -22 c1 -16 6 -21 16 -17 8 4 15 2 15 -4 0 -5
9 -12 20 -15 14 -4 20 0 21 11 0 10 3 12 5 5 3 -7 12 -9 20 -6 17 6 19 57 2
75 -15 15 -20 48 -7 48 8 0 13 -15 10 -32 0 -5 4 -8 9 -8 6 0 10 -22 10 -50 0
-47 5 -55 33 -51 4 0 7 -3 7 -9 0 -5 6 -10 14 -10 7 0 19 -6 25 -14 17 -20
-36 -28 -139 -20 -83 6 -87 6 -115 -19 -20 -18 -25 -27 -15 -27 12 -1 12 -2
-1 -10 -30 -18 -241 -31 -304 -19 -86 16 -196 26 -188 18 5 -4 46 -15 93 -25
93 -19 277 -24 377 -10 47 7 66 6 78 -4 10 -8 15 -9 15 -1 0 17 50 13 56 -4 4
-8 11 -15 18 -15 14 -1 180 83 184 93 2 4 17 7 33 7 16 0 29 4 29 10 0 5 7 7
15 4 8 -4 15 -1 15 4 0 6 10 12 23 14 16 2 21 9 20 26 -3 19 0 21 16 12 29
-15 41 -12 41 10 0 11 7 20 15 20 20 0 19 7 -5 32 -11 12 -20 30 -20 40 0 16
-3 17 -22 6 -13 -7 -27 -12 -31 -13 -5 0 -15 -9 -23 -19 -14 -19 -14 -19 -41
5 -16 13 -31 29 -35 35 -4 6 -21 17 -38 24 -16 7 -30 18 -30 24 0 6 -5 4 -11
-4 -8 -11 -12 -12 -16 -2 -8 20 -26 14 -20 -8 3 -11 1 -20 -4 -20 -5 0 -12 14
-15 30 -7 33 -16 37 -34 15 -7 -9 -8 -15 -2 -15 10 0 25 -30 18 -37 -2 -2 -15
7 -28 20 -19 19 -24 32 -20 56 2 18 0 31 -7 31 -6 0 -8 -8 -4 -17 6 -16 5 -16
-10 -4 -9 7 -17 20 -17 28 0 8 -4 12 -9 9 -10 -6 -45 31 -55 59 -5 15 0 26 23
45 16 14 31 34 33 45 3 17 -3 20 -42 23 -30 2 -52 -2 -65 -13z m-370 -232 c3
-9 1 -21 -4 -26 -7 -7 -14 -2 -20 14 -5 13 -10 18 -10 10 -1 -8 -3 -12 -6 -9
-3 3 -3 12 1 21 7 18 30 12 39 -10z m492 -5 c-3 -8 -6 -5 -6 6 -1 11 2 17 5
13 3 -3 4 -12 1 -19z m-567 -48 c0 -5 -2 -10 -4 -10 -3 0 -8 5 -11 10 -3 6 -1
10 4 10 6 0 11 -4 11 -10z m327 -37 c-3 -10 -5 -2 -5 17 0 19 2 27 5 18 2 -10
2 -26 0 -35z m257 14 c4 -19 3 -26 -4 -22 -5 3 -10 18 -10 32 0 32 5 28 14
-10z m87 -9 c11 -21 11 -22 -4 -9 -10 7 -17 17 -17 22 0 15 9 10 21 -13z
m-244 -20 c-3 -8 -6 -5 -6 6 -1 11 2 17 5 13 3 -3 4 -12 1 -19z m143 -28 c0
-5 -4 -10 -10 -10 -5 0 -10 5 -10 10 0 6 5 10 10 10 6 0 10 -4 10 -10z"/>
<path d="M4783 4815 c-12 -13 -19 -26 -16 -29 4 -3 -6 -6 -21 -6 -22 0 -28 -6
-33 -30 -5 -29 -23 -52 -23 -31 0 6 -4 11 -9 11 -6 0 -6 -12 -1 -30 9 -33 -3
-41 -19 -12 -8 13 -10 9 -6 -18 3 -19 3 -29 -1 -22 -8 18 -24 4 -17 -15 4 -11
3 -14 -5 -9 -8 5 -12 -2 -12 -21 -1 -25 -2 -26 -14 -10 -18 24 -26 21 -26 -9
0 -14 -4 -23 -10 -19 -6 4 -10 -7 -10 -25 0 -16 -4 -38 -9 -48 -6 -9 -13 -34
-16 -55 -4 -27 -10 -37 -22 -35 -13 2 -17 -9 -20 -61 -4 -69 -16 -101 -37
-101 -8 0 -19 -7 -26 -15 -11 -13 -8 -15 16 -15 44 0 57 -12 45 -41 -14 -37
-49 -69 -76 -69 -14 0 -25 6 -25 13 0 6 -15 24 -33 38 -26 21 -35 24 -45 13
-6 -7 -12 -18 -12 -25 0 -9 -3 -9 -14 0 -11 9 -16 9 -23 -2 -4 -8 -18 -20 -31
-26 -14 -7 -21 -18 -18 -26 3 -8 1 -17 -4 -20 -6 -4 -10 -13 -10 -21 0 -9 -11
-30 -25 -48 -14 -18 -25 -37 -25 -42 0 -5 -16 -22 -36 -37 -21 -17 -33 -35
-30 -43 3 -8 0 -14 -7 -14 -24 0 -67 -25 -67 -39 0 -11 -3 -11 -15 -1 -13 11
-15 8 -15 -14 0 -14 -4 -26 -9 -26 -5 0 -17 -3 -27 -7 -13 -5 -16 -3 -11 10 5
12 1 16 -12 14 -26 -4 -52 -27 -44 -40 3 -6 1 -7 -5 -3 -7 4 -12 1 -12 -6 0
-9 -3 -9 -10 2 -8 13 -10 12 -10 -3 0 -10 -5 -15 -11 -11 -6 3 -8 17 -4 31 5
23 4 24 -9 10 -9 -9 -13 -23 -10 -31 3 -9 1 -16 -4 -16 -6 0 -13 6 -15 13 -2
6 -3 -1 -1 -18 4 -29 3 -29 -13 -10 -14 18 -15 18 -9 1 6 -17 -16 -45 -36 -46
-5 0 -9 30 -10 68 l-2 67 -3 -63 c-2 -34 -8 -60 -12 -58 -4 3 -6 -7 -4 -22 3
-23 2 -24 -6 -7 -9 19 -10 19 -10 -2 -1 -15 -6 -21 -15 -17 -9 3 -15 -4 -18
-20 -3 -14 0 -27 6 -29 6 -2 8 -8 4 -12 -4 -4 -17 3 -30 15 -19 18 -24 19 -26
6 -2 -9 -10 -16 -18 -16 -8 0 -14 -7 -14 -15 0 -14 -12 -20 -34 -16 -5 1 -17
-6 -27 -15 -11 -10 -19 -12 -19 -6 0 7 -7 12 -16 12 -13 0 -15 7 -11 35 3 19
2 37 -2 40 -5 2 -12 -14 -16 -38 -6 -39 -8 -40 -16 -18 -5 13 -7 33 -5 45 3
12 0 9 -6 -6 -13 -30 -28 -37 -28 -13 0 8 -7 15 -15 15 -8 0 -19 15 -24 33 -5
17 -10 27 -10 20 -1 -6 -6 -24 -13 -40 -6 -15 -11 -37 -10 -48 1 -14 -2 -12
-12 9 -9 19 -15 24 -18 15 -3 -8 -7 -2 -10 13 -3 16 -1 25 4 21 6 -3 5 3 0 14
-6 11 -9 35 -6 54 l5 34 -18 -25 c-9 -14 -16 -35 -15 -47 2 -13 -1 -23 -6 -23
-6 0 -8 10 -4 22 3 14 2 19 -6 14 -7 -4 -12 -14 -12 -22 0 -8 -4 -12 -10 -9
-6 4 -3 16 6 31 20 30 10 46 -11 18 -14 -18 -15 -17 -10 14 3 21 2 31 -4 27
-6 -3 -15 4 -21 15 -6 11 -8 20 -5 20 3 0 -3 10 -14 21 -14 15 -27 20 -44 15
-20 -5 -26 -1 -32 17 -8 26 -8 26 0 52 6 19 6 19 -8 3 -15 -20 -29 -14 -20 8
3 8 0 21 -7 29 -6 8 -9 23 -5 35 7 23 -13 28 -34 8 -10 -11 -12 -6 -10 25 3
37 -14 63 -33 51 -7 -5 -12 19 -11 53 1 7 -3 11 -7 8 -5 -3 -11 -1 -15 5 -4 6
-11 8 -16 4 -7 -4 -8 8 -4 33 5 30 4 34 -5 21 -6 -10 -16 -18 -21 -18 -6 0 -7
5 -4 10 3 6 1 10 -4 10 -6 0 -11 -4 -11 -10 0 -5 -4 -10 -9 -10 -6 0 -6 12 -1
30 9 32 3 70 -11 70 -5 0 -9 12 -9 28 0 22 -6 16 -31 -35 -22 -47 -35 -63 -50
-63 -18 0 -20 -4 -14 -32 4 -18 12 -38 17 -45 12 -15 0 -21 -42 -19 -23 2 -34
7 -32 15 2 8 -3 11 -11 8 -10 -4 -33 19 -66 64 -29 38 -56 69 -61 69 -6 0 -10
5 -10 11 0 10 -41 69 -67 96 -6 7 -13 18 -16 25 -4 10 -7 11 -18 1 -17 -17
-29 -16 -29 1 0 8 -6 16 -12 19 -9 3 -7 9 7 20 17 13 18 18 5 43 -11 23 -14
25 -17 12 -3 -10 -9 -18 -14 -18 -5 0 -9 -14 -9 -31 0 -35 38 -79 68 -79 13 0
14 -2 4 -8 -9 -6 -6 -12 13 -20 15 -7 25 -20 25 -32 0 -11 4 -20 10 -20 17 0
50 -34 50 -51 0 -9 7 -19 15 -23 9 -3 15 -18 15 -35 0 -19 6 -30 18 -33 10 -3
26 -22 36 -42 9 -20 21 -36 26 -36 4 0 11 -13 15 -29 3 -15 19 -42 36 -58 18
-20 27 -37 23 -47 -3 -9 -1 -16 5 -16 6 0 8 -7 4 -17 -5 -12 -3 -14 8 -8 12 7
12 6 1 -7 -14 -18 0 -34 19 -22 8 5 10 -1 7 -19 -4 -21 1 -29 34 -47 21 -12
38 -27 38 -35 0 -7 10 -15 23 -19 12 -3 23 -13 24 -23 1 -10 6 -31 12 -46 9
-23 15 -27 32 -22 19 6 21 4 15 -19 -5 -19 -3 -26 8 -26 11 0 13 6 9 17 -5 12
3 8 20 -9 15 -15 26 -33 25 -40 -2 -7 7 -14 20 -16 12 -2 22 -10 22 -18 0 -8
5 -12 10 -9 12 7 40 -18 40 -35 0 -7 6 -10 14 -7 10 4 16 -2 18 -16 l3 -22 19
22 c23 26 51 20 36 -7 -16 -30 -12 -35 9 -11 l19 22 13 -35 c7 -19 16 -33 21
-30 4 3 8 -4 8 -15 0 -12 5 -21 10 -21 9 0 14 15 11 33 -1 5 3 6 9 2 5 -3 10
-2 10 4 0 6 7 8 15 5 8 -4 15 -12 15 -19 0 -21 29 -26 50 -7 26 21 33 19 42
-10 5 -20 6 -19 7 8 1 19 7 34 17 38 12 5 15 2 10 -9 -3 -9 -2 -13 3 -10 6 3
14 -3 20 -12 10 -17 10 -17 11 0 0 9 5 17 10 17 6 0 10 -9 10 -19 0 -11 4 -22
9 -25 5 -3 8 2 7 12 0 9 5 16 12 14 6 -1 12 3 12 9 0 5 5 7 10 4 6 -3 10 -15
10 -26 0 -26 13 -24 25 4 6 12 17 22 25 22 8 0 19 5 23 10 5 6 6 1 2 -11 -3
-13 1 -26 10 -34 13 -10 15 -9 15 7 0 11 7 20 15 20 8 0 12 -4 9 -9 -4 -5 4
-12 16 -15 17 -4 21 -11 17 -29 -2 -13 0 -24 4 -24 5 0 9 18 9 40 0 45 16 53
40 20 21 -30 31 -24 27 15 -3 19 0 35 4 35 5 0 9 -8 9 -18 0 -32 11 -31 47 4
32 32 37 33 52 20 15 -14 18 -13 31 4 10 14 16 16 22 7 6 -9 8 -9 8 0 0 7 7
10 15 7 8 -4 15 -1 15 5 0 6 7 11 16 11 8 0 32 18 53 40 20 22 43 40 49 40 7
0 12 5 12 10 0 13 43 56 52 53 5 -2 8 4 8 12 0 16 16 38 73 98 20 22 37 43 37
48 0 5 3 8 8 8 24 -4 33 3 27 20 -3 11 -1 22 5 26 5 3 10 -1 10 -9 0 -9 5 -16
10 -16 10 0 12 6 14 50 1 14 7 25 15 25 9 0 19 22 29 60 10 41 23 67 41 82 15
13 20 22 12 23 -11 0 -11 3 0 17 10 11 10 14 2 9 -23 -13 -13 5 22 41 19 20
35 40 35 45 0 4 6 8 13 8 7 0 21 14 30 30 10 17 24 30 32 30 8 0 13 10 13 28
-1 30 17 72 31 72 20 0 56 77 105 220 12 36 27 75 34 86 10 19 25 75 38 143 3
14 7 28 10 33 8 13 -6 66 -19 71 -7 2 -22 -6 -34 -18z m37 -45 c-6 -11 -13
-20 -15 -20 -4 0 -1 41 5 70 0 3 5 -3 11 -12 7 -12 6 -24 -1 -38z m-251 -398
c1 -7 -3 -10 -9 -7 -5 3 -10 18 -9 33 0 24 1 25 9 7 5 -11 9 -26 9 -33z m-54
-152 c-3 -5 -13 -10 -21 -10 -8 0 -12 5 -9 10 3 6 13 10 21 10 8 0 12 -4 9
-10z m-1684 -63 c-10 -9 -11 -8 -5 6 3 10 9 15 12 12 3 -3 0 -11 -7 -18z m-71
-17 c0 -5 -4 -10 -10 -10 -5 0 -10 5 -10 10 0 6 5 10 10 10 6 0 10 -4 10 -10z
m1600 -30 c0 -5 -4 -10 -10 -10 -5 0 -10 5 -10 10 0 6 5 10 10 10 6 0 10 -4
10 -10z m-1620 -64 c0 -2 -7 -7 -16 -10 -8 -3 -12 -2 -9 4 6 10 25 14 25 6z
m1657 -198 c-3 -8 -6 -5 -6 6 -1 11 2 17 5 13 3 -3 4 -12 1 -19z m-1256 -121
c-10 -9 -11 -8 -5 6 3 10 9 15 12 12 3 -3 0 -11 -7 -18z m206 -129 c-3 -8 -6
-5 -6 6 -1 11 2 17 5 13 3 -3 4 -12 1 -19z m334 -19 c-6 -16 -10 -18 -10 -7
-1 22 12 55 16 42 2 -6 -1 -22 -6 -35z"/>
<path d="M3316 4762 l-19 -27 24 22 c12 12 21 24 18 27 -2 2 -13 -8 -23 -22z"/>
<path d="M2946 4598 c-27 -26 -35 -38 -24 -38 16 0 24 7 56 45 29 34 5 29 -32
-7z"/>
<path d="M3161 4624 c0 -11 3 -14 6 -6 3 7 2 16 -1 19 -3 4 -6 -2 -5 -13z"/>
<path d="M3072 4608 c-7 -7 -12 -17 -12 -22 0 -6 4 -4 10 4 5 8 12 11 15 8 4
-4 0 -17 -9 -30 -9 -12 -16 -17 -16 -10 0 7 -4 11 -9 8 -10 -7 -2 -56 10 -56
5 0 9 8 10 18 0 10 3 12 6 5 10 -27 21 -11 21 32 0 48 -8 61 -26 43z"/>
<path d="M2825 4567 c-33 -35 -69 -87 -60 -87 3 0 18 13 33 28 38 38 59 45 65
21 5 -19 27 -27 27 -9 0 6 -5 10 -10 10 -7 0 -8 13 -4 35 8 45 -10 46 -51 2z"/>
<path d="M2975 4587 c-4 -10 -5 -21 -1 -24 10 -10 18 4 13 24 -4 17 -4 17 -12
0z"/>
<path d="M3020 4585 c-7 -9 -11 -18 -8 -20 3 -3 11 1 18 10 7 9 11 18 8 20 -3
3 -11 -1 -18 -10z"/>
<path d="M4305 4590 c3 -5 8 -10 11 -10 2 0 4 5 4 10 0 6 -5 10 -11 10 -5 0
-7 -4 -4 -10z"/>
<path d="M3111 4574 c0 -11 3 -14 6 -6 3 7 2 16 -1 19 -3 4 -6 -2 -5 -13z"/>
<path d="M2940 4542 c0 -15 -2 -15 -10 -2 -8 12 -10 11 -10 -7 0 -13 -4 -23
-9 -23 -5 0 -11 -11 -13 -25 -6 -31 31 -58 83 -61 20 -1 47 -8 60 -15 14 -7
59 -14 102 -14 l78 -1 -33 17 c-18 10 -47 18 -64 19 -41 0 -161 37 -170 52 -4
7 -3 8 4 4 7 -4 12 -3 12 3 0 6 11 13 25 17 14 3 25 9 25 13 0 13 -19 35 -25
29 -4 -4 -18 -3 -31 2 -20 8 -24 6 -24 -8z"/>
<path d="M3131 4548 c0 -7 4 -22 9 -33 7 -17 9 -15 9 13 1 17 -3 32 -9 32 -5
0 -10 -6 -9 -12z"/>
<path d="M2741 4521 c-12 -11 -18 -21 -14 -23 4 -3 19 6 32 19 29 28 13 31
-18 4z"/>
<path d="M2816 4485 c-3 -9 -6 -22 -5 -28 0 -7 5 -1 10 12 5 13 8 26 5 28 -2
2 -6 -3 -10 -12z"/>
<path d="M2400 4380 c0 -5 7 -10 15 -10 8 0 15 5 15 10 0 6 -7 10 -15 10 -8 0
-15 -4 -15 -10z"/>
<path d="M3688 4383 c7 -3 16 -2 19 1 4 3 -2 6 -13 5 -11 0 -14 -3 -6 -6z"/>
<path d="M4720 4153 c0 -37 5 -140 11 -227 15 -210 4 -297 -53 -412 -22 -46
-49 -91 -59 -100 -11 -9 -19 -22 -19 -28 0 -13 50 43 89 99 28 42 69 136 95
220 27 91 38 171 34 261 -3 75 -9 102 -38 168 -46 104 -60 108 -60 19z"/>
<path d="M4390 4175 c-16 -19 0 -19 26 0 16 12 16 14 3 15 -9 0 -22 -7 -29
-15z"/>
<path d="M2224 4138 c-28 -41 -29 -47 -28 -158 0 -98 5 -133 33 -235 18 -66
37 -138 43 -159 5 -22 13 -46 18 -55 17 -30 11 9 -20 129 -16 63 -30 140 -30
170 0 57 16 130 28 130 20 0 60 187 45 213 -2 4 -17 7 -32 7 -22 0 -35 -9 -57
-42z"/>
<path d="M3554 4141 c-17 -4 -36 -11 -43 -15 -6 -4 -18 -3 -26 4 -8 7 -15 7
-19 1 -4 -6 -13 -8 -21 -5 -7 3 -17 -3 -22 -13 -11 -21 -11 -44 -1 -40 3 1 16
-10 28 -25 24 -31 40 -36 40 -13 0 9 6 12 15 9 10 -4 13 -14 9 -29 -3 -13 -1
-32 6 -42 11 -17 11 -17 5 2 -5 17 -2 16 22 -6 15 -15 39 -30 53 -34 23 -7 24
-7 10 10 -14 17 -13 18 5 11 11 -5 31 -11 45 -14 21 -4 23 -3 13 9 -10 12 -8
18 7 29 13 10 16 18 9 26 -7 8 -3 13 12 17 11 3 23 15 26 26 3 12 9 21 15 21
13 0 53 39 46 45 -3 4 -34 8 -69 11 -61 5 -91 9 -121 18 -7 2 -27 1 -44 -3z
m-17 -123 c-3 -7 -5 -2 -5 12 0 14 2 19 5 13 2 -7 2 -19 0 -25z m53 -58 c0 -5
-4 -10 -10 -10 -5 0 -10 5 -10 10 0 6 5 10 10 10 6 0 10 -4 10 -10z"/>
<path d="M3431 4034 c0 -11 3 -14 6 -6 3 7 2 16 -1 19 -3 4 -6 -2 -5 -13z"/>
<path d="M3445 3980 c3 -5 8 -10 11 -10 2 0 4 5 4 10 0 6 -5 10 -11 10 -5 0
-7 -4 -4 -10z"/>
<path d="M3486 3956 c-4 -15 -4 -31 -1 -34 10 -10 35 -11 29 0 -3 5 -9 22 -13
36 l-8 27 -7 -29z"/>
<path d="M3687 3940 c-3 -11 -1 -23 4 -26 5 -3 9 6 9 20 0 31 -6 34 -13 6z"/>
<path d="M3760 3791 c0 -10 19 -25 25 -20 1 2 -3 10 -11 17 -8 7 -14 8 -14 3z"/>
<path d="M3691 3745 c-1 -17 -3 -18 -12 -5 -8 11 -9 9 -3 -10 12 -45 28 -40
21 7 -2 17 -5 20 -6 8z"/>
<path d="M3746 3743 c-6 -14 -5 -15 5 -6 7 7 10 15 7 18 -3 3 -9 -2 -12 -12z"/>
<path d="M3391 3704 c0 -11 3 -14 6 -6 3 7 2 16 -1 19 -3 4 -6 -2 -5 -13z"/>
<path d="M3532 3680 c0 -14 2 -19 5 -12 2 6 2 18 0 25 -3 6 -5 1 -5 -13z"/>
<path d="M3292 3670 c0 -14 2 -19 5 -12 2 6 2 18 0 25 -3 6 -5 1 -5 -13z"/>
<path d="M3621 3614 c0 -11 3 -14 6 -6 3 7 2 16 -1 19 -3 4 -6 -2 -5 -13z"/>
<path d="M4550 3335 c-7 -9 -11 -18 -8 -20 3 -3 11 1 18 10 7 9 11 18 8 20 -3
3 -11 -1 -18 -10z"/>
<path d="M6988 1092 c-9 -15 -36 -48 -61 -73 -24 -25 -48 -53 -53 -61 -5 -8
-27 -36 -49 -61 -41 -48 -44 -59 -71 -259 -7 -51 12 -107 47 -140 22 -22 29
-23 29 -2 0 9 6 14 12 12 7 -3 25 -55 39 -117 35 -147 32 -269 -6 -307 -13
-13 -30 -24 -37 -24 -7 0 -22 -7 -32 -15 -11 -8 -37 -15 -58 -15 -31 0 -40 4
-48 24 -5 13 -13 27 -19 30 -5 3 -9 27 -8 51 1 30 -3 49 -12 54 -17 11 -23 71
-9 89 6 7 6 12 1 12 -5 0 -29 -21 -52 -47 -62 -68 -99 -189 -73 -231 7 -9 64
-12 253 -10 l244 3 2 35 c8 166 32 271 75 333 18 25 19 42 16 227 -1 110 -7
200 -11 200 -5 0 -5 9 -2 20 13 41 -30 21 -75 -36 -66 -81 -105 -119 -137
-133 -16 -6 -33 -21 -38 -33 -15 -32 -43 -47 -55 -28 -6 9 -5 17 2 21 6 4 7
12 4 18 -4 6 -3 11 3 11 12 0 71 58 71 71 0 5 -5 9 -10 9 -7 0 -8 6 -2 16 5 9
7 25 5 35 -3 11 -1 19 4 19 6 0 8 11 5 25 -4 21 0 25 19 25 13 1 35 7 48 14
l23 13 -25 19 c-24 19 -24 21 -10 57 8 20 19 37 24 37 4 0 12 15 17 33 6 17
17 49 26 70 19 43 8 50 -16 9z m-348 -872 c0 -5 -4 -10 -10 -10 -5 0 -10 5
-10 10 0 6 5 10 10 10 6 0 10 -4 10 -10z"/>
<path d="M10 873 c0 -10 15 -41 34 -69 19 -28 40 -69 47 -92 6 -23 28 -58 47
-79 45 -49 152 -209 152 -227 0 -7 7 -19 15 -26 8 -7 17 -27 21 -46 11 -58 24
-38 24 36 0 83 -28 172 -74 237 -32 46 -230 262 -253 276 -9 5 -13 2 -13 -10z"/>
</g>
</svg>
